<?xml version="1.0" encoding="UTF-8"?>
<svg version="1.1" xmlns="http://www.w3.org/2000/svg" width="200" height="200">
<path d="M0 0 C66 0 132 0 200 0 C200 66 200 132 200 200 C134 200 68 200 0 200 C0 134 0 68 0 0 Z " fill="#FDFDFD" transform="translate(0,0)"/>
<path d="M0 0 C0.8674585 -0.01305176 1.73491699 -0.02610352 2.62866211 -0.03955078 C4.75378742 -0.04253521 6.87850357 0.06332511 9 0.1875 C11.30954382 2.49704382 11.31224203 3.10215943 11.59765625 6.23828125 C11.67661133 7.07254639 11.75556641 7.90681152 11.83691406 8.76635742 C11.91135742 9.66845947 11.98580078 10.57056152 12.0625 11.5 C12.14338867 12.42466064 12.22427734 13.34932129 12.30761719 14.30200195 C12.88341274 21.15315973 13.36183978 28.01072444 13.75 34.875 C13.80679932 35.77710205 13.86359863 36.6792041 13.92211914 37.60864258 C13.96328857 38.44290771 14.00445801 39.27717285 14.046875 40.13671875 C14.08651367 40.87237061 14.12615234 41.60802246 14.16699219 42.3659668 C14 44.1875 14 44.1875 12 46.1875 C9.634343 46.7841348 7.33548346 47.26972987 4.9375 47.6875 C3.88949219 47.87759644 3.88949219 47.87759644 2.8203125 48.0715332 C-5.07652812 49.45575959 -13.02969757 50.34903997 -21 51.1875 C-21 53.1675 -21 55.1475 -21 57.1875 C-20.3709375 57.28546875 -19.741875 57.3834375 -19.09375 57.484375 C-18.2378125 57.63390625 -17.381875 57.7834375 -16.5 57.9375 C-15.6646875 58.07671875 -14.829375 58.2159375 -13.96875 58.359375 C-10.73896394 59.26031532 -8.04685408 60.56921707 -5.08349609 62.11279297 C-3.09025969 63.14094233 -1.07737418 64.08546137 0.96484375 65.01171875 C11.19041682 69.75225188 20.79879338 75.28319428 25.47265625 86.16015625 C27.0277002 92.13843633 25.32632866 96.98407805 22.4375 102.25 C21.63998584 103.57165944 20.83271303 104.88773021 20 106.1875 C20.804375 106.414375 21.60875 106.64125 22.4375 106.875 C25 108.1875 25 108.1875 25.9375 110.625 C26 113.1875 26 113.1875 24 116.1875 C22.0625 115.875 22.0625 115.875 20 115.1875 C19.67 114.1975 19.34 113.2075 19 112.1875 C17.35 112.1875 15.7 112.1875 14 112.1875 C13.505 114.1675 13.505 114.1675 13 116.1875 C11.515 115.6925 11.515 115.6925 10 115.1875 C9.15684434 112.15213964 8.68984218 110.27407053 9 107.1875 C10.4921875 104.74609375 10.4921875 104.74609375 12.4375 102.25 C15.52885982 98.19646995 17.06206447 95.50008181 16.625 90.35546875 C14.92279954 84.45096092 10.11975129 79.37312302 5 76.1875 C3.15275087 75.54234135 1.29767006 74.91939898 -0.5625 74.3125 C-5.72982155 72.56028325 -7.07726483 70.80730721 -10 66.1875 C-16.46143274 61.50051375 -23.1228847 59.99209113 -31 61.1875 C-34.36266084 62.45889473 -34.88558963 62.98728185 -36.75 66.25 C-38.25349463 70.72744005 -38.32120206 75.19607359 -38.375 79.875 C-38.38885742 80.61177979 -38.40271484 81.34855957 -38.41699219 82.10766602 C-38.37791046 86.64474603 -37.84742445 89.61671137 -35 93.1875 C-30.47762177 96.75503735 -25.5450728 98.20404917 -19.890625 98.50390625 C-19.13652344 98.54580078 -18.38242188 98.58769531 -17.60546875 98.63085938 C-16.82816406 98.67017578 -16.05085938 98.70949219 -15.25 98.75 C-14.06083984 98.81477539 -14.06083984 98.81477539 -12.84765625 98.88085938 C-10.89862185 98.98652991 -8.94933252 99.08747966 -7 99.1875 C-6.90203125 99.91453125 -6.8040625 100.6415625 -6.703125 101.390625 C-5.70538754 108.09954928 -4.14906933 114.22798327 -1.8046875 120.59375 C-1 123.1875 -1 123.1875 -1 127.1875 C-0.443125 127.17847656 0.11375 127.16945313 0.6875 127.16015625 C6.63756309 127.39132424 9.99882367 128.94309542 14.26953125 133.0859375 C18.43515616 138.14486798 20 142.67095268 20 149.1875 C7.79 149.1875 -4.42 149.1875 -17 149.1875 C-17 140.11057692 -17 140.11057692 -15.6875 136.375 C-15.44386719 135.64667969 -15.20023437 134.91835937 -14.94921875 134.16796875 C-14 132.1875 -14 132.1875 -12.38671875 130.640625 C-11.92910156 130.16109375 -11.47148438 129.6815625 -11 129.1875 C-11.24858678 122.35136365 -13.25444183 115.77451197 -15 109.1875 C-16.485 109.6825 -16.485 109.6825 -18 110.1875 C-19.69414544 110.16629668 -21.38789036 110.08573377 -23.078125 109.96875 C-24.07457031 109.92492187 -25.07101563 109.88109375 -26.09765625 109.8359375 C-28.18534052 109.73763266 -30.27179815 109.6078126 -32.35546875 109.4453125 C-38.27166264 109.23020337 -38.27166264 109.23020337 -43.26855469 112.06616211 C-46.86070029 116.49784607 -49.03679563 120.17128936 -48.5703125 125.9921875 C-47.73278563 129.2160923 -46.13831401 131.63920144 -44.24609375 134.3515625 C-40.87223938 139.32244512 -41 143.14714832 -41 149.1875 C-53.87 149.1875 -66.74 149.1875 -80 149.1875 C-78.82740312 139.80672495 -76.5625422 136.22386655 -69.68359375 130.38671875 C-65.97689668 127.74644961 -62.38103419 128.10483898 -58 128.1875 C-58.13921875 127.17042969 -58.13921875 127.17042969 -58.28125 126.1328125 C-58.76502002 119.89563468 -58.06489098 116.47108989 -54.125 111.5 C-51.9453125 108.98828125 -51.9453125 108.98828125 -50 107.1875 C-49.34 107.1875 -48.68 107.1875 -48 107.1875 C-48.2165625 106.65640625 -48.433125 106.1253125 -48.65625 105.578125 C-48.9346875 104.87171875 -49.213125 104.1653125 -49.5 103.4375 C-49.7784375 102.74140625 -50.056875 102.0453125 -50.34375 101.328125 C-51 99.1875 -51 99.1875 -51 95.1875 C-51.66 95.1875 -52.32 95.1875 -53 95.1875 C-53.2371875 95.90421875 -53.474375 96.6209375 -53.71875 97.359375 C-55.20617459 100.64259269 -57.0605404 102.792112 -59.5 105.4375 C-60.2940625 106.30890625 -61.088125 107.1803125 -61.90625 108.078125 C-65.4221793 111.62029258 -68.42906825 111.41741752 -73.1875 111.4375 C-81.18126571 111.44115262 -89.42557263 110.90860796 -97 108.1875 C-98.4140625 106.078125 -98.4140625 106.078125 -99 104.1875 C-97.02 103.6925 -97.02 103.6925 -95 103.1875 C-95.99 101.5375 -96.98 99.8875 -98 98.1875 C-95.525 97.1975 -95.525 97.1975 -93 96.1875 C-93 93.8775 -93 91.5675 -93 89.1875 C-91.02 88.6925 -91.02 88.6925 -89 88.1875 C-85.25474201 91.93275799 -85.31090051 96.17020909 -85 101.1875 C-74.82538614 102.39787245 -74.82538614 102.39787245 -65.30078125 99.640625 C-63.11088683 97.28293906 -61.5674041 94.99868994 -60 92.1875 C-59.44054687 91.18589844 -58.88109375 90.18429688 -58.3046875 89.15234375 C-55.5029182 83.58264294 -53.69666604 78.30225595 -52.5 72.1875 C-51.1460946 65.6159124 -51.1460946 65.6159124 -48.1875 63.0625 C-45 61.1875 -45 61.1875 -41.6875 59.6875 C-40.800625 59.1925 -39.91375 58.6975 -39 58.1875 C-38.29208544 55.64390703 -38.29208544 55.64390703 -38 53.1875 C-39.24652344 53.331875 -40.49304688 53.47625 -41.77734375 53.625 C-50.39031641 54.58067436 -58.95328372 55.39205373 -67.625 55.4375 C-68.34034912 55.44652344 -69.05569824 55.45554688 -69.79272461 55.46484375 C-74.75176644 55.43573356 -74.75176644 55.43573356 -77 53.1875 C-77.31884766 51.15063477 -77.31884766 51.15063477 -77.4140625 48.62890625 C-77.45321777 47.69401367 -77.49237305 46.75912109 -77.53271484 45.79589844 C-77.56316895 44.79075195 -77.59362305 43.78560547 -77.625 42.75 C-77.65932129 41.72551758 -77.69364258 40.70103516 -77.72900391 39.64550781 C-77.7954117 37.53027252 -77.85639454 35.41486035 -77.91210938 33.29931641 C-77.9945922 30.37896629 -78.11195468 27.46186332 -78.234375 24.54296875 C-78.28358167 22.84121166 -78.33057822 21.13938872 -78.375 19.4375 C-78.41318848 18.64674072 -78.45137695 17.85598145 -78.49072266 17.04125977 C-78.5234375 14.828125 -78.5234375 14.828125 -78 11.1875 C-74.73110122 8.74524846 -71.67860893 7.66896002 -67.7109375 6.87109375 C-66.69652588 6.66516602 -65.68211426 6.45923828 -64.63696289 6.24707031 C-63.56051514 6.04178711 -62.48406738 5.83650391 -61.375 5.625 C-59.70135376 5.29967285 -59.70135376 5.29967285 -57.99389648 4.96777344 C-48.36082079 3.15075823 -38.77265528 1.90330414 -29 1.1875 C-28.26265625 1.13110352 -27.5253125 1.07470703 -26.765625 1.01660156 C-17.85129464 0.35815671 -8.93757813 0.07860385 0 0 Z " fill="#060606" transform="translate(133,4.8125)"/>
<path d="M0 0 C1.3300103 8.97756951 1.08788039 17.94831966 1 27 C-9.61260448 29.02431171 -20.33006117 30.12967939 -31.06420898 31.28710938 C-34.19129342 31.62541039 -37.31731291 31.97256585 -40.44335938 32.3203125 C-42.45567089 32.53959792 -44.46803889 32.75836578 -46.48046875 32.9765625 C-47.40256638 33.07965729 -48.324664 33.18275208 -49.27470398 33.28897095 C-54.8850696 33.88497355 -60.35778679 34.09392337 -66 34 C-66.17209985 31.75040906 -66.33732826 29.50029236 -66.5 27.25 C-66.5928125 25.99703125 -66.685625 24.7440625 -66.78125 23.453125 C-67.11432971 17.97292295 -67.04131377 12.48784602 -67 7 C-44.85734261 3.27385043 -22.52375409 -0.20952329 0 0 Z " fill="#F8F8F8" transform="translate(133,15)"/>
<path d="M0 0 C2.31 0 4.62 0 7 0 C8.0063655 2.43504509 9.00526413 4.87270864 10 7.3125 C10.28617188 8.00279297 10.57234375 8.69308594 10.8671875 9.40429688 C12.08910744 12.41545674 13 14.71886984 13 18 C13.66 18 14.32 18 15 18 C15.16822266 16.71222656 15.16822266 16.71222656 15.33984375 15.3984375 C16.02648164 11.8636744 17.13294687 8.92396876 18.5625 5.625 C19.01753906 4.56539062 19.47257812 3.50578125 19.94140625 2.4140625 C20.29074219 1.61742187 20.64007813 0.82078125 21 0 C23.31 0 25.62 0 28 0 C28 0.99 28 1.98 28 3 C27.34 3 26.68 3 26 3 C26 8.61 26 14.22 26 20 C26.66 20 27.32 20 28 20 C28 20.66 28 21.32 28 22 C25.69 22 23.38 22 21 22 C21 21.34 21 20.68 21 20 C21.66 20 22.32 20 23 20 C22.67 15.38 22.34 10.76 22 6 C21.61328125 7.14339844 21.2265625 8.28679687 20.828125 9.46484375 C20.30292836 10.95602706 19.77684028 12.44689661 19.25 13.9375 C18.99734375 14.69224609 18.7446875 15.44699219 18.484375 16.22460938 C17.703125 18.40234375 17.703125 18.40234375 16 22 C14.68 22.33 13.36 22.66 12 23 C10.02 17.72 8.04 12.44 6 7 C5.67 11.29 5.34 15.58 5 20 C5.66 20 6.32 20 7 20 C7 20.99 7 21.98 7 23 C4.69 23 2.38 23 0 23 C0 22.01 0 21.02 0 20 C0.66 20 1.32 20 2 20 C2 14.39 2 8.78 2 3 C1.34 3 0.68 3 0 3 C0 2.01 0 1.02 0 0 Z " fill="#4E4E4E" transform="translate(50,172)"/>
<path d="M0 0 C1.65 0 3.3 0 5 0 C7.7527517 6.56747868 10.07443364 13.14381674 12 20 C12.66 20 13.32 20 14 20 C14 20.99 14 21.98 14 23 C11.69 23 9.38 23 7 23 C7.185625 22.401875 7.37125 21.80375 7.5625 21.1875 C8.22093687 18.83591238 8.22093687 18.83591238 7 16 C4.03 15.67 1.06 15.34 -2 15 C-2.33 16.65 -2.66 18.3 -3 20 C-2.34 20 -1.68 20 -1 20 C-1 20.66 -1 21.32 -1 22 C-3.31 22 -5.62 22 -8 22 C-8 21.34 -8 20.68 -8 20 C-7.34 20 -6.68 20 -6 20 C-5.88785156 19.16210938 -5.77570313 18.32421875 -5.66015625 17.4609375 C-4.93580244 13.66343766 -3.77179115 10.25153492 -2.4375 6.625 C-2.20353516 5.98433594 -1.96957031 5.34367188 -1.72851562 4.68359375 C-1.15700381 3.1206839 -0.57915771 1.56009273 0 0 Z " fill="#3D3D3D" transform="translate(142,172)"/>
<path d="M0 0 C3.5 0.5625 3.5 0.5625 5.9375 2.0625 C8.26266487 5.78276379 7.91503129 8.20467141 7.5 12.5625 C5.5 15.5625 5.5 15.5625 1.6875 16.5625 C-1.84506215 16.87779243 -2.38621348 16.64072824 -5.5 14.5 C-7.84654463 11.05351258 -8.26474701 9.6411507 -7.5 5.5625 C-5.39039736 1.68083115 -4.40778028 0.70839326 0 0 Z " fill="#4A4A4A" transform="translate(88.5,178.4375)"/>
<path d="M0 0 C1.65 0 3.3 0 5 0 C5 4.62 5 9.24 5 14 C9.99511957 11.71091598 9.99511957 11.71091598 10.8125 8.8125 C10.874375 8.214375 10.93625 7.61625 11 7 C12.65 7 14.3 7 16 7 C16 10 16 10 13.5 12.6875 C12.675 13.450625 11.85 14.21375 11 15 C11.7425 15.680625 11.7425 15.680625 12.5 16.375 C14 18 14 18 14 20 C14.99 20 15.98 20 17 20 C17 20.66 17 21.32 17 22 C12.61703444 21.51300383 10.96816352 20.16604109 8 17 C7.01 16.67 6.02 16.34 5 16 C5.33 17.98 5.66 19.96 6 22 C4.02 22 2.04 22 0 22 C0 21.34 0 20.68 0 20 C0.66 20 1.32 20 2 20 C2 14.06 2 8.12 2 2 C1.34 2 0.68 2 0 2 C0 1.34 0 0.68 0 0 Z " fill="#434343" transform="translate(116,172)"/>
<path d="M0 0 C1.37562854 1.28965176 2.70766393 2.62689293 4 4 C4 4.66 4 5.32 4 6 C4.66 6.33 5.32 6.66 6 7 C5.34 7 4.68 7 4 7 C4 16.9 4 26.8 4 37 C3.67 35.68 3.34 34.36 3 33 C2.34 33 1.68 33 1 33 C0.16941486 21.97991499 -0.12308347 11.05016019 0 0 Z " fill="#B9B9BA" transform="translate(123,71)"/>
<path d="M0 0 C1.65 0 3.3 0 5 0 C5.99 2.97 6.98 5.94 8 9 C7.34 9 6.68 9 6 9 C6 10.32 6 11.64 6 13 C3.69 13 1.38 13 -1 13 C-1 12.34 -1 11.68 -1 11 C-1.66 11 -2.32 11 -3 11 C-2.01 7.37 -1.02 3.74 0 0 Z " fill="#454545" transform="translate(142,172)"/>
<path d="M0 0 C1.8125 1.125 1.8125 1.125 3 3 C3.3125 6.0625 3.3125 6.0625 3 9 C1 11 1 11 -1.9375 11.3125 C-5 11 -5 11 -6.875 9.8125 C-8.40659584 7.34492892 -8.42822025 5.85480169 -8 3 C-5.85607122 -0.27231235 -3.76836426 -0.56525464 0 0 Z " fill="#0F0F0F" transform="translate(124,25)"/>
<path d="M0 0 C3 0.25 3 0.25 5 2.25 C5.3125 5.75 5.3125 5.75 5 9.25 C1.77856724 11.39762184 0.7404533 11.811068 -3 11.25 C-4.875 9.5625 -4.875 9.5625 -6 7.25 C-5.67747519 2.7346526 -4.81889451 0.40157454 0 0 Z " fill="#0D0D0D" transform="translate(78,29.75)"/>
<path d="M0 0 C2.31 0 4.62 0 7 0 C7 0.99 7 1.98 7 3 C6.34 3 5.68 3 5 3 C5 8.61 5 14.22 5 20 C5.66 20 6.32 20 7 20 C7 20.66 7 21.32 7 22 C4.69 22 2.38 22 0 22 C0 21.34 0 20.68 0 20 C0.66 20 1.32 20 2 20 C1.67 15.05 1.34 10.1 1 5 C0.34 5 -0.32 5 -1 5 C-0.67 3.35 -0.34 1.7 0 0 Z " fill="#525252" transform="translate(71,172)"/>
<path d="M0 0 C3.4375 0.4375 3.4375 0.4375 6.4375 2.4375 C6.4375 3.0975 6.4375 3.7575 6.4375 4.4375 C4.41927083 4.11197917 2.40104167 3.78645833 0.3828125 3.4609375 C-0.25914063 3.45320312 -0.90109375 3.44546875 -1.5625 3.4375 C-2.2225 4.0975 -2.8825 4.7575 -3.5625 5.4375 C-3.23923447 9.03429066 -3.23923447 9.03429066 -2.5625 12.4375 C0.63652639 12.52636184 3.36427456 12.34808531 6.4375 11.4375 C5.875 13.375 5.875 13.375 4.4375 15.4375 C1.0625 16.4375 1.0625 16.4375 -2.5625 16.4375 C-5.8754287 14.34512398 -6.46864239 12.76013552 -7.5625 9 C-7.5625 5.4375 -7.5625 5.4375 -6.0625 2.5 C-3.5625 0.4375 -3.5625 0.4375 0 0 Z " fill="#454545" transform="translate(106.5625,178.5625)"/>
<path d="M0 0 C2.4375 0.875 2.4375 0.875 4.4375 3.875 C3.88194444 9.43055556 3.88194444 9.43055556 2.4375 10.875 C-0.5 11.125 -0.5 11.125 -3.5625 10.875 C-5.71752531 7.64246204 -6.03106135 6.62349077 -5.5625 2.875 C-3.87042018 0.20329502 -3.18535763 -0.1553833 0 0 Z " fill="#F1F1F1" transform="translate(89.5625,181.125)"/>
<path d="M0 0 C1.65 0 3.3 0 5 0 C5 4.29 5 8.58 5 13 C5.66 13 6.32 13 7 13 C7 13.99 7 14.98 7 16 C4.69 16 2.38 16 0 16 C0 15.01 0 14.02 0 13 C0.66 13 1.32 13 2 13 C2 9.7 2 6.4 2 3 C1.34 3 0.68 3 0 3 C0 2.01 0 1.02 0 0 Z " fill="#4D4D4D" transform="translate(158,179)"/>
<path d="M0 0 C2.475 0.495 2.475 0.495 5 1 C4.67 6.94 4.34 12.88 4 19 C4.99 19 5.98 19 7 19 C7 19.99 7 20.98 7 22 C4.69 22 2.38 22 0 22 C0 21.01 0 20.02 0 19 C0.66 19 1.32 19 2 19 C2 13.39 2 7.78 2 2 C1.34 2 0.68 2 0 2 C0 1.34 0 0.68 0 0 Z " fill="#3C3C3C" transform="translate(50,173)"/>
<path d="M0 0 C1.65 0 3.3 0 5 0 C5 4.62 5 9.24 5 14 C5.99 14.33 6.98 14.66 8 15 C6.35 15 4.7 15 3 15 C3 16.65 3 18.3 3 20 C2.67 20 2.34 20 2 20 C2 14.06 2 8.12 2 2 C1.34 2 0.68 2 0 2 C0 1.34 0 0.68 0 0 Z " fill="#515151" transform="translate(116,172)"/>
<path d="M0 0 C2.31 0 4.62 0 7 0 C10 6.5 10 6.5 10 11 C9.01 10.67 8.02 10.34 7 10 C6.67 9.01 6.34 8.02 6 7 C5.67 11.29 5.34 15.58 5 20 C4.67 20 4.34 20 4 20 C4 14.06 4 8.12 4 2 C2.68 1.34 1.36 0.68 0 0 Z " fill="#545454" transform="translate(50,172)"/>
<path d="M0 0 C0.66 0 1.32 0 2 0 C2 0.66 2 1.32 2 2 C3.98 2 5.96 2 8 2 C8 2.33 8 2.66 8 3 C5.69 3.33 3.38 3.66 1 4 C0.67 5.65 0.34 7.3 0 9 C0.66 9 1.32 9 2 9 C2 9.66 2 10.32 2 11 C-0.31 11 -2.62 11 -5 11 C-5 10.34 -5 9.68 -5 9 C-4.34 9 -3.68 9 -3 9 C-2.87625 8.071875 -2.7525 7.14375 -2.625 6.1875 C-2 3 -2 3 0 0 Z " fill="#3B3B3B" transform="translate(139,183)"/>
<path d="M0 0 C0.66 0.33 1.32 0.66 2 1 C2 5.95 2 10.9 2 16 C2.99 16 3.98 16 5 16 C5 16.66 5 17.32 5 18 C2.69 18 0.38 18 -2 18 C-2 17.34 -2 16.68 -2 16 C-1.34 16 -0.68 16 0 16 C0 10.72 0 5.44 0 0 Z " fill="#333333" transform="translate(73,176)"/>
<path d="M0 0 C3.375 0.3125 3.375 0.3125 7 1 C9.67927341 5.01891012 9.15601248 7.24161923 9 12 C7.68 12.33 6.36 12.66 5 13 C5.20625 11.906875 5.4125 10.81375 5.625 9.6875 C6.40346525 5.9161599 6.40346525 5.9161599 4 3 C1.94996045 1.80767387 1.94996045 1.80767387 0 1 C0 0.67 0 0.34 0 0 Z " fill="#404040" transform="translate(87,179)"/>
<path d="M0 0 C0.66 0.66 1.32 1.32 2 2 C5.20319784 2.25288404 7.92784561 1.91026797 11 1 C10.4375 2.9375 10.4375 2.9375 9 5 C5.5625 5.9375 5.5625 5.9375 2 6 C0.0625 4.5625 0.0625 4.5625 -1 3 C-0.67 2.01 -0.34 1.02 0 0 Z " fill="#505050" transform="translate(102,189)"/>
<path d="M0 0 C0.66 0.66 1.32 1.32 2 2 C4.20250992 2.46006346 4.20250992 2.46006346 6.625 2.625 C7.44226563 2.69976562 8.25953125 2.77453125 9.1015625 2.8515625 C9.72804688 2.90054688 10.35453125 2.94953125 11 3 C10.67 3.66 10.34 4.32 10 5 C2.6375 6.425 2.6375 6.425 -1 4 C-0.67 2.68 -0.34 1.36 0 0 Z " fill="#505050" transform="translate(84,189)"/>
<path d="M0 0 C2.76223278 2.76223278 2.57856291 5.20706617 3 9 C1.35 9 -0.3 9 -2 9 C-1.51421457 5.87709365 -1.0013988 3.00419641 0 0 Z " fill="#F0F0F0" transform="translate(144,175)"/>
<path d="M0 0 C0 0.66 0 1.32 0 2 C0.66 2 1.32 2 2 2 C2 2.99 2 3.98 2 5 C-0.31 5 -2.62 5 -5 5 C-5 4.01 -5 3.02 -5 2 C-2 0 -2 0 0 0 Z " fill="#515151" transform="translate(154,190)"/>
<path d="M0 0 C2 3 2 3 2 5 C1.34 5 0.68 5 0 5 C0 6.32 0 7.64 0 9 C-2.31 9 -4.62 9 -7 9 C-6.67 8.34 -6.34 7.68 -6 7 C-4.35 7.33 -2.7 7.66 -1 8 C-1.33 6.02 -1.66 4.04 -2 2 C-1.34 2 -0.68 2 0 2 C0 1.34 0 0.68 0 0 Z " fill="#6D6D6D" transform="translate(148,176)"/>
<path d="M0 0 C0.66 0 1.32 0 2 0 C2.33 2.31 2.66 4.62 3 7 C1.02 7 -0.96 7 -3 7 C-3 6.34 -3 5.68 -3 5 C-2.01 5 -1.02 5 0 5 C0 3.35 0 1.7 0 0 Z " fill="#313131" transform="translate(119,187)"/>
<path d="M0 0 C0.99 0.66 1.98 1.32 3 2 C2.01 4.31 1.02 6.62 0 9 C-0.66 9 -1.32 9 -2 9 C-1.34 6.03 -0.68 3.06 0 0 Z " fill="#434343" transform="translate(69,176)"/>
<path d="M0 0 C0.66 0 1.32 0 2 0 C2 2.31 2 4.62 2 7 C0.68 7.33 -0.64 7.66 -2 8 C-1.34 5.36 -0.68 2.72 0 0 Z " fill="#373737" transform="translate(94,184)"/>
<path d="M0 0 C1.65 0 3.3 0 5 0 C5 0.99 5 1.98 5 3 C3.02 3.99 3.02 3.99 1 5 C0.67 3.35 0.34 1.7 0 0 Z " fill="#4B4B4B" transform="translate(127,179)"/>
</svg>
